<?xml version="1.0" encoding="UTF-8"?>
<svg width="60px" height="60px" viewBox="0 0 60 60" version="1.1" xmlns="http://www.w3.org/2000/svg" xmlns:xlink="http://www.w3.org/1999/xlink">
    <!-- Generator: Sketch 60 (88103) - https://sketch.com -->
    <title>smile</title>
    <desc>Created with Sketch.</desc>
    <g id="页面1" stroke="none" stroke-width="1" fill="none" fill-rule="evenodd">
        <g id="选择食堂" transform="translate(-158.000000, -454.000000)">
            <rect id="大背景" fill="#F9F9F9" x="0" y="0" width="375" height="812"></rect>
            <g id="我的收藏" transform="translate(16.000000, 350.000000)">
                <path d="M25.638852,56 L317.361148,56 C326.276335,56 329.509198,56.9282561 332.768457,58.671327 C336.027716,60.414398 338.585602,62.9722837 340.328673,66.231543 C342.071744,69.4908022 343,72.7236646 343,81.638852 L343,198.361148 C343,207.276335 342.071744,210.509198 340.328673,213.768457 C338.585602,217.027716 336.027716,219.585602 332.768457,221.328673 C329.509198,223.071744 326.276335,224 317.361148,224 L25.638852,224 C16.7236646,224 13.4908022,223.071744 10.231543,221.328673 C6.97228371,219.585602 4.41439796,217.027716 2.67132704,213.768457 C0.928256111,210.509198 4.01235366e-16,207.276335 -6.90560205e-16,198.361148 L6.90560205e-16,81.638852 C-4.01235366e-16,72.7236646 0.928256111,69.4908022 2.67132704,66.231543 C4.41439796,62.9722837 6.97228371,60.414398 10.231543,58.671327 C13.4908022,56.9282561 16.7236646,56 25.638852,56 Z" id="背景矩形" fill="#FFFFFF"></path>
                <g id="smile" opacity="0.525204613" transform="translate(138.000000, 100.000000)" fill="#000000" fill-rule="nonzero">
                    <g id="编组">
                        <rect id="矩形" opacity="0" x="0" y="0" width="68" height="68"></rect>
                        <path d="M19.125,27.9570312 C19.125,29.7174389 20.5520924,31.1445312 22.3125,31.1445312 C24.0729076,31.1445312 25.5,29.7174389 25.5,27.9570312 C25.5,26.1966236 24.0729076,24.7695312 22.3125,24.7695312 C20.5520924,24.7695312 19.125,26.1966236 19.125,27.9570312 L19.125,27.9570312 Z M42.5,27.9570312 C42.5,29.7174389 43.9270924,31.1445312 45.6875,31.1445312 C47.4479076,31.1445312 48.875,29.7174389 48.875,27.9570312 C48.875,26.1966236 47.4479076,24.7695312 45.6875,24.7695312 C43.9270924,24.7695312 42.5,26.1966236 42.5,27.9570312 L42.5,27.9570312 Z M34,4.25 C17.5710938,4.25 4.25,17.5710938 4.25,34 C4.25,50.4289062 17.5710938,63.75 34,63.75 C50.4289062,63.75 63.75,50.4289062 63.75,34 C63.75,17.5710938 50.4289062,4.25 34,4.25 Z M51.4648437,51.4648437 C49.19375,53.7359375 46.5507812,55.515625 43.6089844,56.7640625 C40.5742187,58.0523437 37.3402344,58.703125 34,58.703125 C30.6597656,58.703125 27.4257812,58.0523437 24.384375,56.7640625 C21.4425781,55.5222656 18.7996094,53.7359375 16.5285156,51.4648437 C14.2574219,49.19375 12.4777344,46.5507812 11.2292969,43.6089844 C9.94765625,40.5742187 9.296875,37.3402344 9.296875,34 C9.296875,30.6597656 9.94765625,27.4257812 11.2359375,24.384375 C12.4777344,21.4425781 14.2640625,18.7996094 16.5351562,16.5285156 C18.80625,14.2574219 21.4492187,12.4777344 24.3910156,11.2292969 C27.4257812,9.94765625 30.6597656,9.296875 34,9.296875 C37.3402344,9.296875 40.5742187,9.94765625 43.615625,11.2359375 C46.5574219,12.4777344 49.2003906,14.2640625 51.4714844,16.5351562 C53.7425781,18.80625 55.5222656,21.4492187 56.7707031,24.3910156 C58.0523437,27.4257812 58.703125,30.6597656 58.703125,34 C58.703125,37.3402344 58.0523437,40.5742187 56.7640625,43.615625 C55.5222656,46.5574219 53.7359375,49.2003906 51.4648437,51.4648437 Z M44.09375,35.3945312 L40.8996094,35.3945312 C40.6207031,35.3945312 40.3816406,35.6070312 40.3617188,35.8859375 C40.109375,39.1730469 37.3535156,41.7695312 34,41.7695312 C30.6464844,41.7695312 27.8839844,39.1730469 27.6382813,35.8859375 C27.6183594,35.6070312 27.3792969,35.3945312 27.1003906,35.3945312 L23.90625,35.3945312 C23.6007813,35.3945312 23.3617188,35.646875 23.375,35.9523437 C23.6671875,41.5503906 28.3222656,46.0195312 34,46.0195312 C39.6777344,46.0195312 44.3328125,41.5503906 44.625,35.9523437 C44.6382813,35.646875 44.3992188,35.3945312 44.09375,35.3945312 Z" id="形状"></path>
                    </g>
                </g>
            </g>
        </g>
    </g>
</svg>