<?xml version="1.0" encoding="UTF-8"?>
<svg width="23px" height="22px" viewBox="0 0 23 22" version="1.1" xmlns="http://www.w3.org/2000/svg" xmlns:xlink="http://www.w3.org/1999/xlink">
    <!-- Generator: Sketch 60 (88103) - https://sketch.com -->
    <title>打包带走</title>
    <desc>Created with Sketch.</desc>
    <defs>
        <path d="M25.638852,-1.03584031e-15 L331.361148,1.03584031e-15 C340.276335,-6.01853049e-16 343.509198,0.928256111 346.768457,2.67132704 C350.027716,4.41439796 352.585602,6.97228371 354.328673,10.231543 C356.071744,13.4908022 357,16.7236646 357,25.638852 L357,84.361148 C357,93.2763354 356.071744,96.5091978 354.328673,99.768457 C352.585602,103.027716 350.027716,105.585602 346.768457,107.328673 C343.509198,109.071744 340.276335,110 331.361148,110 L25.638852,110 C16.7236646,110 13.4908022,109.071744 10.231543,107.328673 C6.97228371,105.585602 4.41439796,103.027716 2.67132704,99.768457 C0.928256111,96.5091978 4.01235366e-16,93.2763354 -6.90560205e-16,84.361148 L6.90560205e-16,25.638852 C-4.01235366e-16,16.7236646 0.928256111,13.4908022 2.67132704,10.231543 C4.41439796,6.97228371 6.97228371,4.41439796 10.231543,2.67132704 C13.4908022,0.928256111 16.7236646,6.01853049e-16 25.638852,-1.03584031e-15 Z" id="path-1"></path>
        <filter x="-2.8%" y="-7.3%" width="105.6%" height="118.2%" filterUnits="objectBoundingBox" id="filter-2">
            <feOffset dx="0" dy="2" in="SourceAlpha" result="shadowOffsetOuter1"></feOffset>
            <feGaussianBlur stdDeviation="3" in="shadowOffsetOuter1" result="shadowBlurOuter1"></feGaussianBlur>
            <feColorMatrix values="0 0 0 0 0.937254902   0 0 0 0 0.937254902   0 0 0 0 0.956862745  0 0 0 1 0" type="matrix" in="shadowBlurOuter1"></feColorMatrix>
        </filter>
        <path d="M7,17.8971 L8.506,19.3981 L18.21,9.8011 L23.21,14.7451 L23.21,14.8981 L23.364,14.8981 L27.914,19.3981 L29.419,17.8971 L26.21,14.7781 L26.21,8.8981 L23.21,8.8981 L23.21,11.8611 L18.21,7.0011 L7,17.8971 Z M9.71,19.3611 L9.71,28.3971 L15.21,28.3971 L15.21,21.3971 L21.21,21.3971 L21.21,28.3971 L26.71,28.3971 L26.71,19.3611 L18.21,10.8971 L9.71,19.3611 Z" id="path-3"></path>
    </defs>
    <g id="页面1" stroke="none" stroke-width="1" fill="none" fill-rule="evenodd">
        <g id="支付页面" transform="translate(-220.000000, -489.000000)">
            <rect id="大背景" fill="#F9F9F9" x="0" y="0" width="375" height="812"></rect>
            <g id="餐品详情" transform="translate(9.000000, 217.000000)"></g>
            <g id="就餐方式" transform="translate(9.000000, 429.000000)">
                <g id="矩形背景">
                    <use fill="black" fill-opacity="1" filter="url(#filter-2)" xlink:href="#path-1"></use>
                    <use fill="#FFFFFF" fill-rule="evenodd" xlink:href="#path-1"></use>
                </g>
                <path d="M35.2555408,50.5 C32.0797567,50.5 30.727695,50.7610952 29.3284166,51.5094374 C28.1118471,52.1600659 27.1600659,53.1118471 26.5094374,54.3284166 C25.7610952,55.727695 25.5,57.0797567 25.5,60.2555408 L25.5,82.7444592 C25.5,85.9202433 25.7610952,87.272305 26.5094374,88.6715834 C27.1600659,89.8881529 28.1118471,90.8399341 29.3284166,91.4905626 C30.727695,92.2389048 32.0797567,92.5 35.2555408,92.5 L324.744459,92.5 C327.920243,92.5 329.272305,92.2389048 330.671583,91.4905626 C331.888153,90.8399341 332.839934,89.8881529 333.490563,88.6715834 C334.238905,87.272305 334.5,85.9202433 334.5,82.7444592 L334.5,60.2555408 C334.5,57.0797567 334.238905,55.727695 333.490563,54.3284166 C332.839934,53.1118471 331.888153,52.1600659 330.671583,51.5094374 C329.272305,50.7610952 327.920243,50.5 324.744459,50.5 L35.2555408,50.5 Z" id="矩形大的" stroke="#E5E5EA" fill="#FFFFFF"></path>
                <g id="Glyphs-/-Home-Screen-Quick-Actions-/-Home" opacity="0.870349702" transform="translate(204.000000, 53.500000)">
                    <g id="home" style="mix-blend-mode: color-burn;">
                        <use fill-opacity="0.3" fill="#000000" xlink:href="#path-3"></use>
                        <use fill="#4D4D4D" xlink:href="#path-3"></use>
                    </g>
                </g>
            </g>
        </g>
    </g>
</svg>