<?xml version="1.0" encoding="UTF-8"?>
<svg width="97px" height="22px" viewBox="0 0 97 22" version="1.1" xmlns="http://www.w3.org/2000/svg" xmlns:xlink="http://www.w3.org/1999/xlink">
    <!-- Generator: Sketch 60 (88103) - https://sketch.com -->
    <title>微信支付logo</title>
    <desc>Created with Sketch.</desc>
    <defs>
        <path d="M25.638852,-1.03584031e-15 L331.361148,1.03584031e-15 C340.276335,-6.01853049e-16 343.509198,0.928256111 346.768457,2.67132704 C350.027716,4.41439796 352.585602,6.97228371 354.328673,10.231543 C356.071744,13.4908022 357,16.7236646 357,25.638852 L357,84.361148 C357,93.2763354 356.071744,96.5091978 354.328673,99.768457 C352.585602,103.027716 350.027716,105.585602 346.768457,107.328673 C343.509198,109.071744 340.276335,110 331.361148,110 L25.638852,110 C16.7236646,110 13.4908022,109.071744 10.231543,107.328673 C6.97228371,105.585602 4.41439796,103.027716 2.67132704,99.768457 C0.928256111,96.5091978 4.01235366e-16,93.2763354 -6.90560205e-16,84.361148 L6.90560205e-16,25.638852 C-4.01235366e-16,16.7236646 0.928256111,13.4908022 2.67132704,10.231543 C4.41439796,6.97228371 6.97228371,4.41439796 10.231543,2.67132704 C13.4908022,0.928256111 16.7236646,6.01853049e-16 25.638852,-1.03584031e-15 Z" id="path-1"></path>
        <filter x="-2.8%" y="-7.3%" width="105.6%" height="118.2%" filterUnits="objectBoundingBox" id="filter-2">
            <feOffset dx="0" dy="2" in="SourceAlpha" result="shadowOffsetOuter1"></feOffset>
            <feGaussianBlur stdDeviation="3" in="shadowOffsetOuter1" result="shadowBlurOuter1"></feGaussianBlur>
            <feColorMatrix values="0 0 0 0 0.937254902   0 0 0 0 0.937254902   0 0 0 0 0.956862745  0 0 0 1 0" type="matrix" in="shadowBlurOuter1"></feColorMatrix>
        </filter>
    </defs>
    <g id="页面1" stroke="none" stroke-width="1" fill="none" fill-rule="evenodd">
        <g id="支付页面" transform="translate(-64.000000, -611.000000)">
            <rect id="大背景" fill="#F9F9F9" x="0" y="0" width="375" height="812"></rect>
            <g id="支付方式" transform="translate(9.000000, 553.000000)">
                <g id="矩形复制-2">
                    <use fill="black" fill-opacity="1" filter="url(#filter-2)" xlink:href="#path-1"></use>
                    <use fill="#FFFFFF" fill-rule="evenodd" xlink:href="#path-1"></use>
                </g>
                <g id="微信支付logo" transform="translate(55.000000, 58.000000)" fill-rule="nonzero">
                    <g>
                        <path d="M8.98562558,13.8571428 C8.87295314,13.9142857 8.7602807,13.9428571 8.61944017,13.9428571 C8.30959102,13.9428571 8.05607811,13.7714286 7.91523758,13.5142857 L7.85890133,13.4 L5.63362104,8.48571428 C5.60545293,8.42857141 5.60545293,8.37142855 5.60545293,8.31428568 C5.60545293,8.08571429 5.77446156,7.91428569 5.99980641,7.91428569 C6.08431072,7.91428569 6.16881504,7.94285716 6.25331935,8.00000002 L8.87295314,9.8857143 C9.07012986,10 9.29547473,10.0857143 9.54898764,10.0857143 C9.68982817,10.0857143 9.8306687,10.0571428 9.97150923,10 L22.2528031,4.45714286 C20.0556909,1.82857143 16.4220053,0.114285715 12.3094619,0.114285715 C5.60545293,0.114285715 0.140840526,4.71428572 0.140840526,10.4 C0.140840526,13.4857143 1.77459063,16.2857143 4.3378882,18.1714286 C4.53506494,18.3142857 4.67590546,18.5714286 4.67590546,18.8285714 C4.67590546,18.9142857 4.64773735,19 4.61956925,19.0857143 C4.42239252,19.8571429 4.08437525,21.1142857 4.08437525,21.1714286 C4.05620715,21.2571429 4.02803904,21.3714286 4.02803904,21.4857143 C4.02803904,21.7142857 4.19704767,21.8857143 4.42239252,21.8857143 C4.50689683,21.8857143 4.59140115,21.8571429 4.64773735,21.8 L7.29553927,20.2285715 C7.49271599,20.1142857 7.7180608,20.0285715 7.94340567,20.0285715 C8.05607811,20.0285715 8.19691858,20.0571429 8.30959102,20.0857143 C9.54898764,20.4571428 10.9010567,20.6571428 12.2812939,20.6571428 C18.9853029,20.6571428 24.4499153,16.0571428 24.4499153,10.3714286 C24.4499153,8.65714287 23.9428894,7.02857145 23.0696782,5.6 L9.07012986,13.8 L8.98562558,13.8571428 Z" id="XMLID_81_" fill="#22AC38"></path>
                        <rect id="XMLID_80_" fill="#494949" x="53.7165766" y="7.39999998" width="9.12646611" height="1"></rect>
                        <rect id="XMLID_79_" fill="#494949" x="53.7165766" y="9.97142856" width="9.12646611" height="1"></rect>
                        <path d="M62.5895297,17.6571429 L62.5895297,12.6285714 L53.9419214,12.6285714 L53.9419214,17.6285714 L62.5895297,17.6285714 L62.5895297,17.6571429 Z M54.8151327,13.4571429 L61.7163185,13.4571429 L61.7163185,16.8 L54.8151327,16.8 L54.8151327,13.4571429 Z" id="XMLID_76_" fill="#494949"></path>
                        <path d="M51.2096152,18.1714286 L51.2096152,6.65714286 C51.7166412,5.51428571 52.1954989,4.31428572 52.5616843,3.08571429 L51.7448092,2.6 C50.9279342,5.48571429 49.7730419,8.08571429 48.2801323,10.2857143 L48.7589901,11.1428571 C49.266016,10.3714286 49.80121,9.45714285 50.336404,8.51428574 L50.336404,18.2 L51.2096152,18.2 L51.2096152,18.1714286 Z" id="XMLID_75_" fill="#494949"></path>
                        <path d="M84.3353068,18.1714286 L84.3353068,6.65714286 C84.8423328,5.51428571 85.3211904,4.31428572 85.6873763,3.08571429 L84.8705007,2.6 C84.0536258,5.48571429 82.8987336,8.08571429 81.4058239,10.2857143 L81.8846821,11.1428571 C82.3917075,10.3714286 82.9269015,9.45714285 83.4620954,8.51428574 L83.4620954,18.2 L84.3353068,18.2 L84.3353068,18.1714286 Z" id="XMLID_74_" fill="#494949"></path>
                        <path d="M63.8007582,4.74285714 L58.4488182,4.74285714 L59.0121804,4.4 L59.0403485,4.4 L59.0403485,4.37142857 C58.9840123,4.22857143 58.8150036,3.85714286 58.6178269,3.45714286 C58.4488182,3.08571429 58.2798096,2.74285714 58.1953053,2.54285714 L58.1953053,2.51428572 L57.3784302,3 L57.3784302,3.02857143 C57.6601113,3.57142857 57.9136243,4.08571428 58.1389691,4.57142857 C58.1671372,4.62857143 58.1953053,4.68571428 58.1953053,4.71428572 L52.8433653,4.71428572 L52.8433653,5.6 L63.8007582,5.6 L63.8007582,4.74285714 Z" id="XMLID_73_" fill="#494949"></path>
                        <polygon id="XMLID_72_" fill="#494949" points="40.2522223 4.05714286 39.4353472 4.05714286 39.4353472 6.97142859 37.8861015 6.97142859 37.8861015 2.82857143 37.0692264 2.82857143 37.0692264 6.97142859 35.4636444 6.97142859 35.4636444 4.05714286 34.6467694 4.05714286 34.6467694 7.80000003 40.2522223 7.80000003"></polygon>
                        <rect id="XMLID_71_" fill="#494949" x="34.9002823" y="9.42857145" width="4.95758652" height="1"></rect>
                        <path d="M35.9706703,13.4857143 L35.9706703,12.7428571 L38.4776317,12.7428571 L38.4776317,14.5714286 C38.4494636,15.2285714 38.4212955,15.4285714 38.1959506,15.7142857 L38.7029766,16.6 L38.7311446,16.5714286 C39.1818343,16.2 39.914205,15.5714286 40.9564249,14.6285714 L40.984593,14.6285714 L40.5902396,13.9428571 L40.5620715,13.9142857 L39.2945067,15 L39.2945067,11.8857143 L35.0974591,11.8857143 L35.0974591,13.1428571 C35.2101315,14.8571429 34.7876099,16.0857143 33.8298943,16.8 L33.8017262,16.8 L34.2524159,17.6 L34.280584,17.6285714 L34.3087521,17.6 C35.4918126,16.6571428 36.0551746,15.2571429 35.9706703,13.4857143 Z" id="XMLID_70_" fill="#494949"></path>
                        <path d="M30.6187303,6.74285713 L31.1257562,7.59999997 C32.3933209,6.31428572 33.4918771,4.77142857 34.280584,3.08571429 L33.5200452,2.62857143 C32.7031701,4.28571428 31.7172864,5.68571429 30.6187303,6.74285713 Z" id="XMLID_69_" fill="#494949"></path>
                        <path d="M30.3933855,11.9714286 L30.8440752,12.7714285 L30.8722433,12.8 L30.9004114,12.7714285 C31.3792692,12.2 31.858127,11.6 32.3088167,10.9714286 L32.3088167,18.1714286 L33.1256917,18.1714286 L33.1256917,9.59999998 C33.4918771,8.94285713 33.8580624,8.20000002 34.1960797,7.37142858 L34.1960797,7.34285711 L33.4073727,6.88571426 L33.4073727,6.91428572 C32.6186658,8.8285714 31.6327821,10.5428571 30.3933855,11.9714286 Z" id="XMLID_68_" fill="#494949"></path>
                        <path d="M46.2520287,6.51428574 L46.2520287,5.68571429 L42.6183431,5.68571429 C42.9281923,4.71428572 43.2943777,3.6 43.4070501,2.65714286 L42.562007,2.65714286 C42.0268129,5.17142857 41.2099379,7.37142858 40.167718,9.08571426 L40.6747439,10 L41.0409293,9.22857145 C41.1817698,8.97142859 41.2944422,8.7714286 41.3789465,8.60000001 C41.6324595,10.8285714 42.0831492,12.6285714 42.7028475,13.9428571 C42.1113173,15 41.1817698,16.0857143 39.9423732,17.2 L39.914205,17.2 L40.3930629,18.0285715 L40.421231,18.0571429 L40.449399,18.0285715 C41.7451319,16.8 42.6465112,15.7142857 43.125369,14.8285714 C43.660563,15.8 44.5901105,16.9714286 45.6323304,18.0857143 L45.6604985,18.1142857 L46.1393563,17.2571429 L46.1393563,17.2285714 L46.1111882,17.2285714 C44.984464,16.1142857 44.0830846,14.9714285 43.5760587,14 C44.5056062,12.2857143 45.0689683,9.77142857 45.2943132,6.51428574 L46.2520287,6.51428574 Z M43.2380414,12.9428571 C42.7028475,11.5428571 42.308494,9.62857144 42.054981,7.25714285 C42.1394854,6.99999999 42.2521578,6.74285713 42.3648302,6.51428574 L44.5619424,6.51428574 C44.3647657,9.19999999 43.9422441,11.3714286 43.2380414,12.9428571 Z" id="XMLID_65_" fill="#494949"></path>
                        <path d="M80.3636039,5.62857143 L80.3636039,4.74285714 L73.4060823,4.74285714 L73.4060823,2.48571428 L72.5047031,2.48571428 L72.5047031,4.74285714 L65.6035173,4.74285714 L65.6035173,5.62857143 L72.5047031,5.62857143 L72.5047031,8.57142854 L72.3638623,8.57142854 L68.0259741,8.57142854 L68.0259741,9.37142858 C68.0259741,9.37142858 68.7020088,10.9428571 70.1104135,12.6571429 C70.673776,13.3428571 71.3216422,14.0571428 72.1666857,14.7714286 C70.5892717,15.7428571 68.6456724,16.6857143 65.9133661,17.2285714 L66.4203922,18.1428571 C66.4203922,18.1428571 69.6597239,17.4571429 72.8708883,15.3428571 C73.2934094,15.6285715 75.2933451,17.2285714 79.011535,18.1428571 C79.011535,18.1428571 79.011535,18.1428571 79.011535,18.1428571 L79.0397029,18.1428571 L79.4058888,17.4571429 C79.4058888,17.4571429 78.4481731,17.2 76.9834314,16.6285714 C75.9693799,16.2285714 74.7018147,15.6285715 73.4905866,14.8 C75.2933451,13.4571429 76.898927,11.5142857 77.8566427,9.02857146 L77.1242722,8.60000001 L73.3779138,8.60000001 L73.3779138,5.62857143 L80.3636039,5.62857143 Z M76.8425912,9.34285712 C76.8425912,9.34285712 75.9412114,11.9428572 72.8708883,14.1714286 C71.4061466,13.0285714 69.885069,11.3714286 68.9273533,9.34285712 L76.8425912,9.34285712 Z" id="XMLID_35_" fill="#494949"></path>
                        <path d="M91.5745099,17.0285714 C91.4055012,17.0285714 91.2364925,17.0285714 91.0674839,17.0285714 L91.0674839,17.9142857 C91.4055012,17.9142857 91.6590143,17.9142857 91.828023,17.9142857 C92.7012343,17.9142857 93.1519239,17.7142857 93.5462771,17.3428571 C93.9124624,16.9714286 94.0814711,16.4285714 94.0533032,15.6857143 L94.0533032,7.37142858 L96.4194242,7.37142858 L96.4194242,6.48571427 L94.0533032,6.48571427 L94.0533032,2.65714286 L93.1800918,2.65714286 L93.1800918,6.48571427 L85.9127208,6.48571427 L85.9127208,7.37142858 L93.1800918,7.37142858 L93.1800918,15.6857143 C93.1519239,16.6 92.5885621,17.0285714 91.5745099,17.0285714 Z" id="XMLID_34_" fill="#494949"></path>
                        <path d="M89.6027427,14.0571428 L90.4759541,13.5428571 C89.9970959,12.5714286 89.3773976,11.2857143 88.6168592,9.71428571 L87.8281522,10.2 C88.3351776,11.2571429 88.926708,12.5428572 89.6027427,14.0571428 Z" id="XMLID_33_" fill="#494949"></path>
                    </g>
                </g>
            </g>
        </g>
    </g>
</svg>