<?xml version="1.0" encoding="UTF-8"?>
<svg width="20px" height="20px" viewBox="0 0 20 20" version="1.1" xmlns="http://www.w3.org/2000/svg" xmlns:xlink="http://www.w3.org/1999/xlink">
    <!-- Generator: Sketch 60 (88103) - https://sketch.com -->
    <title>形状</title>
    <desc>Created with Sketch.</desc>
    <defs>
        <path d="M25.638852,-1.03584031e-15 L331.361148,1.03584031e-15 C340.276335,-6.01853049e-16 343.509198,0.928256111 346.768457,2.67132704 C350.027716,4.41439796 352.585602,6.97228371 354.328673,10.231543 C356.071744,13.4908022 357,16.7236646 357,25.638852 L357,84.361148 C357,93.2763354 356.071744,96.5091978 354.328673,99.768457 C352.585602,103.027716 350.027716,105.585602 346.768457,107.328673 C343.509198,109.071744 340.276335,110 331.361148,110 L25.638852,110 C16.7236646,110 13.4908022,109.071744 10.231543,107.328673 C6.97228371,105.585602 4.41439796,103.027716 2.67132704,99.768457 C0.928256111,96.5091978 4.01235366e-16,93.2763354 -6.90560205e-16,84.361148 L6.90560205e-16,25.638852 C-4.01235366e-16,16.7236646 0.928256111,13.4908022 2.67132704,10.231543 C4.41439796,6.97228371 6.97228371,4.41439796 10.231543,2.67132704 C13.4908022,0.928256111 16.7236646,6.01853049e-16 25.638852,-1.03584031e-15 Z" id="path-1"></path>
        <filter x="-2.8%" y="-7.3%" width="105.6%" height="118.2%" filterUnits="objectBoundingBox" id="filter-2">
            <feOffset dx="0" dy="2" in="SourceAlpha" result="shadowOffsetOuter1"></feOffset>
            <feGaussianBlur stdDeviation="3" in="shadowOffsetOuter1" result="shadowBlurOuter1"></feGaussianBlur>
            <feColorMatrix values="0 0 0 0 0.937254902   0 0 0 0 0.937254902   0 0 0 0 0.956862745  0 0 0 1 0" type="matrix" in="shadowBlurOuter1"></feColorMatrix>
        </filter>
        <path d="M21,0 L308,0 C319.59798,-2.13051432e-15 329,9.40202025 329,21 C329,32.5979797 319.59798,42 308,42 L21,42 C9.40202025,42 1.42034288e-15,32.5979797 0,21 C-1.42034288e-15,9.40202025 9.40202025,2.13051432e-15 21,0 Z" id="path-3"></path>
        <filter x="-3.5%" y="-22.6%" width="107.0%" height="154.8%" filterUnits="objectBoundingBox" id="filter-4">
            <feOffset dx="0" dy="2" in="SourceAlpha" result="shadowOffsetOuter1"></feOffset>
            <feGaussianBlur stdDeviation="3.5" in="shadowOffsetOuter1" result="shadowBlurOuter1"></feGaussianBlur>
            <feColorMatrix values="0 0 0 0 0.239215686   0 0 0 0 0.494117647   0 0 0 0 1  0 0 0 0.644831731 0" type="matrix" in="shadowBlurOuter1"></feColorMatrix>
        </filter>
    </defs>
    <g id="页面1" stroke="none" stroke-width="1" fill="none" fill-rule="evenodd">
        <g id="支付页面" transform="translate(-39.000000, -748.000000)">
            <rect id="大背景" fill="#F9F9F9" x="0" y="0" width="375" height="812"></rect>
            <g id="更多需要" transform="translate(9.000000, 742.000000)">
                <g id="矩形背景">
                    <use fill="black" fill-opacity="1" filter="url(#filter-2)" xlink:href="#path-1"></use>
                    <use fill="#FFFFFF" fill-rule="evenodd" xlink:href="#path-1"></use>
                </g>
                <text font-family="PingFangSC-Semibold, PingFang SC" font-size="14" font-weight="500" fill="#494949">
                    <tspan x="25" y="34">更多需要</tspan>
                </text>
            </g>
            <g id="结算" transform="translate(21.000000, 738.000000)">
                <g id="矩形">
                    <use fill="black" fill-opacity="1" filter="url(#filter-4)" xlink:href="#path-3"></use>
                    <use fill="#3D7EFF" fill-rule="evenodd" xlink:href="#path-3"></use>
                </g>
                <g id="收款" transform="translate(18.000000, 10.000000)">
                    <g id="money-collect">
                        <g id="编组"></g>
                    </g>
                    <rect id="矩形" fill="#000000" fill-rule="nonzero" opacity="0" x="4" y="6" width="16" height="16"></rect>
                    <path d="M19.9875,14.7165802 C19.95,14.6115868 19.835,14.5590901 19.73,14.5965877 L18.2,15.1540529 L18.2,1.69989376 C18.2,0.759952503 17.44,-5.55111512e-17 16.5,-5.55111512e-17 L3.5,-5.55111512e-17 C2.56,-5.55111512e-17 1.8,0.759952503 1.8,1.69989376 L1.8,15.1540529 L0.2675,14.5965877 C0.245,14.5890882 0.2225,14.5840885 0.2,14.5840885 C0.09,14.5840885 0,14.6740829 0,14.784076 L0,16.2739829 C0,16.3564777 0.0525,16.431473 0.1325,16.4614712 L9.725,19.951253 C9.9025,20.016249 10.095,20.016249 10.2725,19.951253 L19.8675,16.463971 C19.9475,16.4339729 20,16.3589776 20,16.2764827 L20,14.7865758 C20,14.7615774 19.995,14.7390788 19.9875,14.7165802 Z M10.5,18 L4,15.7205815 L4,2 L17,2 L17,15.7205815 L10.5,18 Z M13.7930862,5 L12.4008885,5 C12.3242537,5 12.252728,5.0425 12.2195196,5.11 L10.0558655,9.33 L9.97156725,9.33 L7.80791314,5.11 C7.77215026,5.0425 7.70317899,5 7.62654425,5 L6.20369261,5 C6.17048422,5 6.13727584,5.0075 6.10662194,5.025 C6.00699678,5.0775 5.97123391,5.2 6.02487822,5.295 L8.67899466,10.085 L7.22293463,10.085 C7.11053702,10.085 7.01857533,10.175 7.01857533,10.285 L7.01857533,10.9625 C7.01857533,11.0725 7.11053702,11.1625 7.22293463,11.1625 L9.16434801,11.1625 L9.16434801,12.1375 L7.22293463,12.1375 C7.11053702,12.1375 7.01857533,12.2275 7.01857533,12.3375 L7.01857533,13.015 C7.01857533,13.125 7.11053702,13.215 7.22293463,13.215 L9.16434801,13.215 L9.16434801,14.8 C9.16434801,14.91 9.25630969,15 9.36870731,15 L10.6433985,15 C10.7557961,15 10.8477578,14.91 10.8477578,14.8 L10.8477578,13.2125 L12.7968346,13.2125 C12.9092322,13.2125 13.0011939,13.1225 13.0011939,13.0125 L13.0011939,12.335 C13.0011939,12.225 12.9092322,12.135 12.7968346,12.135 L10.8477578,12.135 L10.8477578,11.16 L12.7968346,11.16 C12.9092322,11.16 13.0011939,11.07 13.0011939,10.96 L13.0011939,10.2825 C13.0011939,10.1725 12.9092322,10.0825 12.7968346,10.0825 L11.3254476,10.0825 L13.9744551,5.2925 C13.989782,5.2625 14,5.23 14,5.1975 C13.9974455,5.09 13.9054838,5 13.7930862,5 Z" id="形状" fill="#FFFFFF" fill-rule="nonzero"></path>
                </g>
            </g>
        </g>
    </g>
</svg>