<?xml version="1.0" encoding="UTF-8"?>
<svg width="20px" height="20px" viewBox="0 0 20 20" version="1.1" xmlns="http://www.w3.org/2000/svg" xmlns:xlink="http://www.w3.org/1999/xlink">
    <!-- Generator: Sketch 54.1 (76490) - https://sketchapp.com -->
    <title>收款</title>
    <desc>Created with Sketch.</desc>
    <g id="页面1" stroke="none" stroke-width="1" fill="none" fill-rule="evenodd">
        <g id="支付页面" transform="translate(-39.000000, -748.000000)">
            <g id="结算" transform="translate(21.000000, 738.000000)">
                <g id="收款" transform="translate(18.000000, 10.000000)">
                    <g id="money-collect">
                        <g id="编组"></g>
                    </g>
                    <rect id="矩形" fill="#000000" fill-rule="nonzero" opacity="0" x="4" y="6" width="16" height="16"></rect>
                    <path d="M19.9875,14.7165802 C19.95,14.6115868 19.835,14.5590901 19.73,14.5965877 L18.2,15.1540529 L18.2,1.69989376 C18.2,0.759952503 17.44,0 16.5,0 L3.5,0 C2.56,0 1.8,0.759952503 1.8,1.69989376 L1.8,15.1540529 L0.2675,14.5965877 C0.245,14.5890882 0.2225,14.5840885 0.2,14.5840885 C0.09,14.5840885 0,14.6740829 0,14.784076 L0,16.2739829 C0,16.3564777 0.0525,16.431473 0.1325,16.4614712 L9.725,19.951253 C9.9025,20.016249 10.095,20.016249 10.2725,19.951253 L19.8675,16.463971 C19.9475,16.4339729 20,16.3589776 20,16.2764827 L20,14.7865758 C20,14.7615774 19.995,14.7390788 19.9875,14.7165802 Z M10.5,18 L4,15.7205815 L4,2 L17,2 L17,15.7205815 L10.5,18 Z M13.7930862,5 L12.4008885,5 C12.3242537,5 12.252728,5.0425 12.2195196,5.11 L10.0558655,9.33 L9.97156725,9.33 L7.80791314,5.11 C7.77215026,5.0425 7.70317899,5 7.62654425,5 L6.20369261,5 C6.17048422,5 6.13727584,5.0075 6.10662194,5.025 C6.00699678,5.0775 5.97123391,5.2 6.02487822,5.295 L8.67899466,10.085 L7.22293463,10.085 C7.11053702,10.085 7.01857533,10.175 7.01857533,10.285 L7.01857533,10.9625 C7.01857533,11.0725 7.11053702,11.1625 7.22293463,11.1625 L9.16434801,11.1625 L9.16434801,12.1375 L7.22293463,12.1375 C7.11053702,12.1375 7.01857533,12.2275 7.01857533,12.3375 L7.01857533,13.015 C7.01857533,13.125 7.11053702,13.215 7.22293463,13.215 L9.16434801,13.215 L9.16434801,14.8 C9.16434801,14.91 9.25630969,15 9.36870731,15 L10.6433985,15 C10.7557961,15 10.8477578,14.91 10.8477578,14.8 L10.8477578,13.2125 L12.7968346,13.2125 C12.9092322,13.2125 13.0011939,13.1225 13.0011939,13.0125 L13.0011939,12.335 C13.0011939,12.225 12.9092322,12.135 12.7968346,12.135 L10.8477578,12.135 L10.8477578,11.16 L12.7968346,11.16 C12.9092322,11.16 13.0011939,11.07 13.0011939,10.96 L13.0011939,10.2825 C13.0011939,10.1725 12.9092322,10.0825 12.7968346,10.0825 L11.3254476,10.0825 L13.9744551,5.2925 C13.989782,5.2625 14,5.23 14,5.1975 C13.9974455,5.09 13.9054838,5 13.7930862,5 Z" id="形状" fill="#FFFFFF" fill-rule="nonzero"></path>
                </g>
            </g>
        </g>
    </g>
</svg>