<?xml version="1.0" encoding="UTF-8"?>
<svg width="23px" height="23px" viewBox="0 0 23 23" version="1.1" xmlns="http://www.w3.org/2000/svg" xmlns:xlink="http://www.w3.org/1999/xlink">
    <!-- Generator: Sketch 54.1 (76490) - https://sketchapp.com -->
    <title>减号</title>
    <desc>Created with Sketch.</desc>
    <g id="页面1" stroke="none" stroke-width="1" fill="none" fill-rule="evenodd">
        <g id="选菜" transform="translate(-278.000000, -467.000000)" fill-rule="nonzero">
            <g id="减号" transform="translate(277.000000, 466.000000)">
                <g id="编组">
                    <rect id="矩形" fill="#000000" opacity="0" x="0" y="0" width="25" height="25"></rect>
                    <path d="M16.9921875,11.71875 L8.0078125,11.71875 C7.90039063,11.71875 7.8125,11.8066406 7.8125,11.9140625 L7.8125,13.0859375 C7.8125,13.1933594 7.90039063,13.28125 8.0078125,13.28125 L16.9921875,13.28125 C17.0996094,13.28125 17.1875,13.1933594 17.1875,13.0859375 L17.1875,11.9140625 C17.1875,11.8066406 17.0996094,11.71875 16.9921875,11.71875 Z" id="路径" fill="#D1D1D6"></path>
                    <path d="M12.5,1.5625 C6.45996094,1.5625 1.5625,6.45996094 1.5625,12.5 C1.5625,18.5400391 6.45996094,23.4375 12.5,23.4375 C18.5400391,23.4375 23.4375,18.5400391 23.4375,12.5 C23.4375,6.45996094 18.5400391,1.5625 12.5,1.5625 Z M12.5,21.5820312 C7.48535156,21.5820312 3.41796875,17.5146484 3.41796875,12.5 C3.41796875,7.48535156 7.48535156,3.41796875 12.5,3.41796875 C17.5146484,3.41796875 21.5820312,7.48535156 21.5820312,12.5 C21.5820312,17.5146484 17.5146484,21.5820312 12.5,21.5820312 Z" id="形状" fill="#D1D1D6"></path>
                </g>
            </g>
        </g>
    </g>
</svg>